<mxfile host="app.diagrams.net" modified="2021-12-06T08:13:11.979Z" agent="5.0 (Macintosh; Intel Mac OS X 10_15_7) AppleWebKit/537.36 (KHTML, like Gecko) Chrome/96.0.4664.55 Safari/537.36" etag="u-ml1c7QFQ0rVtXwMp16" version="15.8.7" type="github">
  <diagram id="C5RBs43oDa-KdzZeNtuy" name="Page-1">
    <mxGraphModel dx="946" dy="564" grid="1" gridSize="9" guides="1" tooltips="1" connect="1" arrows="1" fold="1" page="1" pageScale="1" pageWidth="827" pageHeight="1169" math="0" shadow="0">
      <root>
        <mxCell id="WIyWlLk6GJQsqaUBKTNV-0" />
        <mxCell id="WIyWlLk6GJQsqaUBKTNV-1" parent="WIyWlLk6GJQsqaUBKTNV-0" />
        <mxCell id="WIyWlLk6GJQsqaUBKTNV-2" value="" style="rounded=0;html=1;jettySize=auto;orthogonalLoop=1;fontSize=11;endArrow=block;endFill=0;endSize=8;strokeWidth=1;shadow=0;labelBackgroundColor=none;edgeStyle=orthogonalEdgeStyle;" parent="WIyWlLk6GJQsqaUBKTNV-1" source="WIyWlLk6GJQsqaUBKTNV-3" edge="1">
          <mxGeometry relative="1" as="geometry">
            <mxPoint x="257" y="160" as="targetPoint" />
          </mxGeometry>
        </mxCell>
        <mxCell id="WIyWlLk6GJQsqaUBKTNV-3" value="Player is dealt two cards, the dealer one" style="rounded=1;whiteSpace=wrap;html=1;fontSize=12;glass=0;strokeWidth=1;shadow=0;" parent="WIyWlLk6GJQsqaUBKTNV-1" vertex="1">
          <mxGeometry x="197" y="70" width="120" height="40" as="geometry" />
        </mxCell>
        <mxCell id="lpwA50W5LmhLsJu2_Kpb-2" value="" style="edgeStyle=orthogonalEdgeStyle;rounded=0;orthogonalLoop=1;jettySize=auto;html=1;" edge="1" parent="WIyWlLk6GJQsqaUBKTNV-1" source="WIyWlLk6GJQsqaUBKTNV-6" target="lpwA50W5LmhLsJu2_Kpb-0">
          <mxGeometry relative="1" as="geometry" />
        </mxCell>
        <mxCell id="WIyWlLk6GJQsqaUBKTNV-6" value="Blackjack ? (score = 21)" style="rhombus;whiteSpace=wrap;html=1;shadow=0;fontFamily=Helvetica;fontSize=12;align=center;strokeWidth=1;spacing=6;spacingTop=-4;" parent="WIyWlLk6GJQsqaUBKTNV-1" vertex="1">
          <mxGeometry x="207" y="160" width="100" height="80" as="geometry" />
        </mxCell>
        <mxCell id="lpwA50W5LmhLsJu2_Kpb-5" value="" style="edgeStyle=orthogonalEdgeStyle;rounded=0;orthogonalLoop=1;jettySize=auto;html=1;" edge="1" parent="WIyWlLk6GJQsqaUBKTNV-1" source="lpwA50W5LmhLsJu2_Kpb-0">
          <mxGeometry relative="1" as="geometry">
            <mxPoint x="257" y="352" as="targetPoint" />
          </mxGeometry>
        </mxCell>
        <mxCell id="lpwA50W5LmhLsJu2_Kpb-0" value="Prompt the user to continue or not" style="rounded=0;whiteSpace=wrap;html=1;" vertex="1" parent="WIyWlLk6GJQsqaUBKTNV-1">
          <mxGeometry x="207" y="290" width="101" height="34" as="geometry" />
        </mxCell>
        <mxCell id="lpwA50W5LmhLsJu2_Kpb-3" value="No" style="text;html=1;align=center;verticalAlign=middle;resizable=0;points=[];autosize=1;strokeColor=none;fillColor=none;" vertex="1" parent="WIyWlLk6GJQsqaUBKTNV-1">
          <mxGeometry x="267" y="250" width="30" height="20" as="geometry" />
        </mxCell>
        <mxCell id="lpwA50W5LmhLsJu2_Kpb-9" value="" style="edgeStyle=orthogonalEdgeStyle;rounded=0;orthogonalLoop=1;jettySize=auto;html=1;" edge="1" parent="WIyWlLk6GJQsqaUBKTNV-1" source="lpwA50W5LmhLsJu2_Kpb-4">
          <mxGeometry relative="1" as="geometry">
            <mxPoint x="257" y="450" as="targetPoint" />
          </mxGeometry>
        </mxCell>
        <mxCell id="lpwA50W5LmhLsJu2_Kpb-22" value="" style="edgeStyle=orthogonalEdgeStyle;rounded=0;orthogonalLoop=1;jettySize=auto;html=1;" edge="1" parent="WIyWlLk6GJQsqaUBKTNV-1" source="lpwA50W5LmhLsJu2_Kpb-4" target="lpwA50W5LmhLsJu2_Kpb-21">
          <mxGeometry relative="1" as="geometry" />
        </mxCell>
        <mxCell id="lpwA50W5LmhLsJu2_Kpb-4" value="Keep playing ?" style="rhombus;whiteSpace=wrap;html=1;shadow=0;fontFamily=Helvetica;fontSize=12;align=center;strokeWidth=1;spacing=6;spacingTop=-4;" vertex="1" parent="WIyWlLk6GJQsqaUBKTNV-1">
          <mxGeometry x="207" y="351" width="100" height="80" as="geometry" />
        </mxCell>
        <mxCell id="lpwA50W5LmhLsJu2_Kpb-11" value="" style="edgeStyle=orthogonalEdgeStyle;rounded=0;orthogonalLoop=1;jettySize=auto;html=1;" edge="1" parent="WIyWlLk6GJQsqaUBKTNV-1" source="lpwA50W5LmhLsJu2_Kpb-8">
          <mxGeometry relative="1" as="geometry">
            <mxPoint x="257" y="522" as="targetPoint" />
          </mxGeometry>
        </mxCell>
        <mxCell id="lpwA50W5LmhLsJu2_Kpb-8" value="Deal another card" style="whiteSpace=wrap;html=1;shadow=0;strokeWidth=1;spacing=6;spacingTop=-4;" vertex="1" parent="WIyWlLk6GJQsqaUBKTNV-1">
          <mxGeometry x="201.5" y="450" width="111" height="36" as="geometry" />
        </mxCell>
        <mxCell id="lpwA50W5LmhLsJu2_Kpb-13" value="" style="edgeStyle=orthogonalEdgeStyle;rounded=0;orthogonalLoop=1;jettySize=auto;html=1;" edge="1" parent="WIyWlLk6GJQsqaUBKTNV-1" source="lpwA50W5LmhLsJu2_Kpb-10">
          <mxGeometry relative="1" as="geometry">
            <mxPoint x="257" y="630" as="targetPoint" />
          </mxGeometry>
        </mxCell>
        <mxCell id="lpwA50W5LmhLsJu2_Kpb-23" style="edgeStyle=orthogonalEdgeStyle;rounded=0;orthogonalLoop=1;jettySize=auto;html=1;" edge="1" parent="WIyWlLk6GJQsqaUBKTNV-1" source="lpwA50W5LmhLsJu2_Kpb-10">
          <mxGeometry relative="1" as="geometry">
            <mxPoint x="63" y="562" as="targetPoint" />
          </mxGeometry>
        </mxCell>
        <mxCell id="lpwA50W5LmhLsJu2_Kpb-10" value="is score &amp;gt; 21 ?" style="rhombus;whiteSpace=wrap;html=1;shadow=0;strokeWidth=1;spacing=6;spacingTop=-4;" vertex="1" parent="WIyWlLk6GJQsqaUBKTNV-1">
          <mxGeometry x="207" y="522" width="100" height="80" as="geometry" />
        </mxCell>
        <mxCell id="lpwA50W5LmhLsJu2_Kpb-41" value="" style="edgeStyle=orthogonalEdgeStyle;rounded=0;orthogonalLoop=1;jettySize=auto;html=1;" edge="1" parent="WIyWlLk6GJQsqaUBKTNV-1" source="lpwA50W5LmhLsJu2_Kpb-12">
          <mxGeometry relative="1" as="geometry">
            <mxPoint x="185" y="670.0000000000002" as="targetPoint" />
          </mxGeometry>
        </mxCell>
        <mxCell id="lpwA50W5LmhLsJu2_Kpb-43" value="" style="edgeStyle=orthogonalEdgeStyle;rounded=0;orthogonalLoop=1;jettySize=auto;html=1;" edge="1" parent="WIyWlLk6GJQsqaUBKTNV-1" source="lpwA50W5LmhLsJu2_Kpb-12" target="lpwA50W5LmhLsJu2_Kpb-42">
          <mxGeometry relative="1" as="geometry" />
        </mxCell>
        <mxCell id="lpwA50W5LmhLsJu2_Kpb-12" value="Was the last card an ace ?" style="rhombus;whiteSpace=wrap;html=1;shadow=0;strokeWidth=1;spacing=6;spacingTop=-4;" vertex="1" parent="WIyWlLk6GJQsqaUBKTNV-1">
          <mxGeometry x="207" y="630" width="100" height="80" as="geometry" />
        </mxCell>
        <mxCell id="lpwA50W5LmhLsJu2_Kpb-14" value="Yes" style="text;html=1;align=center;verticalAlign=middle;resizable=0;points=[];autosize=1;strokeColor=none;fillColor=none;" vertex="1" parent="WIyWlLk6GJQsqaUBKTNV-1">
          <mxGeometry x="254" y="602" width="40" height="20" as="geometry" />
        </mxCell>
        <mxCell id="lpwA50W5LmhLsJu2_Kpb-19" style="edgeStyle=orthogonalEdgeStyle;rounded=0;orthogonalLoop=1;jettySize=auto;html=1;" edge="1" parent="WIyWlLk6GJQsqaUBKTNV-1">
          <mxGeometry relative="1" as="geometry">
            <mxPoint x="207" y="306" as="targetPoint" />
            <mxPoint x="99" y="666" as="sourcePoint" />
            <Array as="points">
              <mxPoint x="99" y="675" />
              <mxPoint x="63" y="675" />
              <mxPoint x="63" y="306" />
            </Array>
          </mxGeometry>
        </mxCell>
        <mxCell id="lpwA50W5LmhLsJu2_Kpb-16" value="Do score - 10 (change value of ace to 1)" style="whiteSpace=wrap;html=1;shadow=0;strokeWidth=1;spacing=6;spacingTop=-4;" vertex="1" parent="WIyWlLk6GJQsqaUBKTNV-1">
          <mxGeometry x="69" y="652" width="129" height="36" as="geometry" />
        </mxCell>
        <mxCell id="lpwA50W5LmhLsJu2_Kpb-18" value="Yes" style="text;html=1;align=center;verticalAlign=middle;resizable=0;points=[];autosize=1;strokeColor=none;fillColor=none;" vertex="1" parent="WIyWlLk6GJQsqaUBKTNV-1">
          <mxGeometry x="189" y="670" width="36" height="18" as="geometry" />
        </mxCell>
        <mxCell id="lpwA50W5LmhLsJu2_Kpb-20" value="Yes" style="text;html=1;align=center;verticalAlign=middle;resizable=0;points=[];autosize=1;strokeColor=none;fillColor=none;" vertex="1" parent="WIyWlLk6GJQsqaUBKTNV-1">
          <mxGeometry x="256" y="424" width="36" height="18" as="geometry" />
        </mxCell>
        <mxCell id="lpwA50W5LmhLsJu2_Kpb-21" value="Deal a card to dealer" style="whiteSpace=wrap;html=1;shadow=0;strokeWidth=1;spacing=6;spacingTop=-4;" vertex="1" parent="WIyWlLk6GJQsqaUBKTNV-1">
          <mxGeometry x="521" y="324" width="111" height="35" as="geometry" />
        </mxCell>
        <mxCell id="lpwA50W5LmhLsJu2_Kpb-24" value="No" style="text;html=1;align=center;verticalAlign=middle;resizable=0;points=[];autosize=1;strokeColor=none;fillColor=none;" vertex="1" parent="WIyWlLk6GJQsqaUBKTNV-1">
          <mxGeometry x="171" y="568" width="27" height="18" as="geometry" />
        </mxCell>
        <mxCell id="lpwA50W5LmhLsJu2_Kpb-27" value="No" style="text;html=1;align=center;verticalAlign=middle;resizable=0;points=[];autosize=1;strokeColor=none;fillColor=none;" vertex="1" parent="WIyWlLk6GJQsqaUBKTNV-1">
          <mxGeometry x="288" y="361" width="27" height="18" as="geometry" />
        </mxCell>
        <mxCell id="lpwA50W5LmhLsJu2_Kpb-29" value="" style="edgeStyle=orthogonalEdgeStyle;rounded=0;orthogonalLoop=1;jettySize=auto;html=1;" edge="1" parent="WIyWlLk6GJQsqaUBKTNV-1">
          <mxGeometry relative="1" as="geometry">
            <mxPoint x="576.5" y="359" as="sourcePoint" />
            <mxPoint x="576.5" y="378" as="targetPoint" />
          </mxGeometry>
        </mxCell>
        <mxCell id="lpwA50W5LmhLsJu2_Kpb-32" value="" style="edgeStyle=orthogonalEdgeStyle;rounded=0;orthogonalLoop=1;jettySize=auto;html=1;" edge="1" parent="WIyWlLk6GJQsqaUBKTNV-1" source="lpwA50W5LmhLsJu2_Kpb-30">
          <mxGeometry relative="1" as="geometry">
            <mxPoint x="577" y="445.5" as="targetPoint" />
          </mxGeometry>
        </mxCell>
        <mxCell id="lpwA50W5LmhLsJu2_Kpb-30" value="Deal another card" style="whiteSpace=wrap;html=1;shadow=0;strokeWidth=1;spacing=6;spacingTop=-4;" vertex="1" parent="WIyWlLk6GJQsqaUBKTNV-1">
          <mxGeometry x="521" y="378" width="111" height="36" as="geometry" />
        </mxCell>
        <mxCell id="lpwA50W5LmhLsJu2_Kpb-34" value="" style="edgeStyle=orthogonalEdgeStyle;rounded=0;orthogonalLoop=1;jettySize=auto;html=1;entryX=0;entryY=0.5;entryDx=0;entryDy=0;" edge="1" parent="WIyWlLk6GJQsqaUBKTNV-1" source="lpwA50W5LmhLsJu2_Kpb-31" target="lpwA50W5LmhLsJu2_Kpb-44">
          <mxGeometry relative="1" as="geometry">
            <mxPoint x="693" y="575.5" as="targetPoint" />
          </mxGeometry>
        </mxCell>
        <mxCell id="lpwA50W5LmhLsJu2_Kpb-31" value="is score = 21 ?" style="rhombus;whiteSpace=wrap;html=1;shadow=0;strokeWidth=1;spacing=6;spacingTop=-4;" vertex="1" parent="WIyWlLk6GJQsqaUBKTNV-1">
          <mxGeometry x="529.75" y="551.25" width="95.5" height="81" as="geometry" />
        </mxCell>
        <mxCell id="lpwA50W5LmhLsJu2_Kpb-37" style="edgeStyle=orthogonalEdgeStyle;rounded=0;orthogonalLoop=1;jettySize=auto;html=1;entryX=0.5;entryY=1;entryDx=0;entryDy=0;" edge="1" parent="WIyWlLk6GJQsqaUBKTNV-1" source="lpwA50W5LmhLsJu2_Kpb-35" target="lpwA50W5LmhLsJu2_Kpb-44">
          <mxGeometry relative="1" as="geometry">
            <mxPoint x="747" y="630" as="targetPoint" />
            <Array as="points">
              <mxPoint x="747" y="693" />
            </Array>
          </mxGeometry>
        </mxCell>
        <mxCell id="lpwA50W5LmhLsJu2_Kpb-47" style="edgeStyle=orthogonalEdgeStyle;rounded=0;orthogonalLoop=1;jettySize=auto;html=1;entryX=1;entryY=0.5;entryDx=0;entryDy=0;exitX=0.5;exitY=1;exitDx=0;exitDy=0;" edge="1" parent="WIyWlLk6GJQsqaUBKTNV-1" source="lpwA50W5LmhLsJu2_Kpb-35" target="lpwA50W5LmhLsJu2_Kpb-30">
          <mxGeometry relative="1" as="geometry">
            <mxPoint x="810" y="592" as="targetPoint" />
            <mxPoint x="524" y="729" as="sourcePoint" />
            <Array as="points">
              <mxPoint x="578" y="729" />
              <mxPoint x="577" y="774" />
              <mxPoint x="810" y="774" />
              <mxPoint x="810" y="396" />
            </Array>
          </mxGeometry>
        </mxCell>
        <mxCell id="lpwA50W5LmhLsJu2_Kpb-35" value="is dealer&#39; score higher than player&#39;s ?" style="rhombus;whiteSpace=wrap;html=1;shadow=0;strokeWidth=1;spacing=6;spacingTop=-4;" vertex="1" parent="WIyWlLk6GJQsqaUBKTNV-1">
          <mxGeometry x="525.87" y="652" width="103.25" height="81" as="geometry" />
        </mxCell>
        <mxCell id="lpwA50W5LmhLsJu2_Kpb-38" value="Yes" style="text;html=1;align=center;verticalAlign=middle;resizable=0;points=[];autosize=1;strokeColor=none;fillColor=none;" vertex="1" parent="WIyWlLk6GJQsqaUBKTNV-1">
          <mxGeometry x="621" y="670" width="36" height="18" as="geometry" />
        </mxCell>
        <mxCell id="lpwA50W5LmhLsJu2_Kpb-39" value="Yes" style="text;html=1;align=center;verticalAlign=middle;resizable=0;points=[];autosize=1;strokeColor=none;fillColor=none;" vertex="1" parent="WIyWlLk6GJQsqaUBKTNV-1">
          <mxGeometry x="632" y="554" width="36" height="18" as="geometry" />
        </mxCell>
        <mxCell id="lpwA50W5LmhLsJu2_Kpb-40" value="No" style="text;html=1;align=center;verticalAlign=middle;resizable=0;points=[];autosize=1;strokeColor=none;fillColor=none;" vertex="1" parent="WIyWlLk6GJQsqaUBKTNV-1">
          <mxGeometry x="585" y="616" width="27" height="18" as="geometry" />
        </mxCell>
        <mxCell id="lpwA50W5LmhLsJu2_Kpb-42" value="Player loses" style="rounded=1;whiteSpace=wrap;html=1;" vertex="1" parent="WIyWlLk6GJQsqaUBKTNV-1">
          <mxGeometry x="206.5" y="738" width="102" height="36" as="geometry" />
        </mxCell>
        <mxCell id="lpwA50W5LmhLsJu2_Kpb-44" value="Dealer wins" style="rounded=1;whiteSpace=wrap;html=1;" vertex="1" parent="WIyWlLk6GJQsqaUBKTNV-1">
          <mxGeometry x="693" y="571.5" width="108" height="40.5" as="geometry" />
        </mxCell>
        <mxCell id="lpwA50W5LmhLsJu2_Kpb-48" value="No" style="text;html=1;align=center;verticalAlign=middle;resizable=0;points=[];autosize=1;strokeColor=none;fillColor=none;" vertex="1" parent="WIyWlLk6GJQsqaUBKTNV-1">
          <mxGeometry x="585" y="738" width="27" height="18" as="geometry" />
        </mxCell>
        <mxCell id="lpwA50W5LmhLsJu2_Kpb-49" value="" style="endArrow=classic;html=1;rounded=0;exitX=0.5;exitY=1;exitDx=0;exitDy=0;entryX=0.5;entryY=0;entryDx=0;entryDy=0;" edge="1" parent="WIyWlLk6GJQsqaUBKTNV-1" source="lpwA50W5LmhLsJu2_Kpb-31" target="lpwA50W5LmhLsJu2_Kpb-35">
          <mxGeometry width="50" height="50" relative="1" as="geometry">
            <mxPoint x="513" y="572" as="sourcePoint" />
            <mxPoint x="513" y="603" as="targetPoint" />
          </mxGeometry>
        </mxCell>
        <mxCell id="lpwA50W5LmhLsJu2_Kpb-51" value="" style="edgeStyle=orthogonalEdgeStyle;rounded=0;orthogonalLoop=1;jettySize=auto;html=1;entryX=0.5;entryY=0;entryDx=0;entryDy=0;" edge="1" parent="WIyWlLk6GJQsqaUBKTNV-1" source="lpwA50W5LmhLsJu2_Kpb-50" target="lpwA50W5LmhLsJu2_Kpb-31">
          <mxGeometry relative="1" as="geometry" />
        </mxCell>
        <mxCell id="lpwA50W5LmhLsJu2_Kpb-55" value="" style="edgeStyle=orthogonalEdgeStyle;rounded=0;orthogonalLoop=1;jettySize=auto;html=1;entryX=0.5;entryY=0;entryDx=0;entryDy=0;" edge="1" parent="WIyWlLk6GJQsqaUBKTNV-1" source="lpwA50W5LmhLsJu2_Kpb-50" target="lpwA50W5LmhLsJu2_Kpb-54">
          <mxGeometry relative="1" as="geometry">
            <Array as="points">
              <mxPoint x="426" y="483" />
            </Array>
          </mxGeometry>
        </mxCell>
        <mxCell id="lpwA50W5LmhLsJu2_Kpb-50" value="is score &amp;gt; 21 ?" style="rhombus;whiteSpace=wrap;html=1;shadow=0;strokeWidth=1;spacing=6;spacingTop=-4;" vertex="1" parent="WIyWlLk6GJQsqaUBKTNV-1">
          <mxGeometry x="528.75" y="442" width="95.5" height="81" as="geometry" />
        </mxCell>
        <mxCell id="lpwA50W5LmhLsJu2_Kpb-53" value="Dealer loses" style="rounded=1;whiteSpace=wrap;html=1;" vertex="1" parent="WIyWlLk6GJQsqaUBKTNV-1">
          <mxGeometry x="375.06" y="738" width="102" height="36" as="geometry" />
        </mxCell>
        <mxCell id="lpwA50W5LmhLsJu2_Kpb-61" value="" style="edgeStyle=orthogonalEdgeStyle;rounded=0;orthogonalLoop=1;jettySize=auto;html=1;entryX=0.5;entryY=0;entryDx=0;entryDy=0;" edge="1" parent="WIyWlLk6GJQsqaUBKTNV-1" source="lpwA50W5LmhLsJu2_Kpb-54" target="lpwA50W5LmhLsJu2_Kpb-53">
          <mxGeometry relative="1" as="geometry">
            <mxPoint x="426" y="711" as="targetPoint" />
          </mxGeometry>
        </mxCell>
        <mxCell id="lpwA50W5LmhLsJu2_Kpb-62" style="edgeStyle=orthogonalEdgeStyle;rounded=0;orthogonalLoop=1;jettySize=auto;html=1;entryX=0;entryY=0.5;entryDx=0;entryDy=0;" edge="1" parent="WIyWlLk6GJQsqaUBKTNV-1" source="lpwA50W5LmhLsJu2_Kpb-54" target="lpwA50W5LmhLsJu2_Kpb-35">
          <mxGeometry relative="1" as="geometry" />
        </mxCell>
        <mxCell id="lpwA50W5LmhLsJu2_Kpb-54" value="Was the last card an ace ?" style="rhombus;whiteSpace=wrap;html=1;shadow=0;strokeWidth=1;spacing=6;spacingTop=-4;" vertex="1" parent="WIyWlLk6GJQsqaUBKTNV-1">
          <mxGeometry x="378" y="568" width="96.13" height="80" as="geometry" />
        </mxCell>
        <mxCell id="lpwA50W5LmhLsJu2_Kpb-57" value="No" style="text;html=1;align=center;verticalAlign=middle;resizable=0;points=[];autosize=1;strokeColor=none;fillColor=none;" vertex="1" parent="WIyWlLk6GJQsqaUBKTNV-1">
          <mxGeometry x="468" y="612" width="27" height="18" as="geometry" />
        </mxCell>
        <mxCell id="lpwA50W5LmhLsJu2_Kpb-58" value="No" style="text;html=1;align=center;verticalAlign=middle;resizable=0;points=[];autosize=1;strokeColor=none;fillColor=none;" vertex="1" parent="WIyWlLk6GJQsqaUBKTNV-1">
          <mxGeometry x="261" y="712" width="27" height="18" as="geometry" />
        </mxCell>
        <mxCell id="lpwA50W5LmhLsJu2_Kpb-59" value="No" style="text;html=1;align=center;verticalAlign=middle;resizable=0;points=[];autosize=1;strokeColor=none;fillColor=none;" vertex="1" parent="WIyWlLk6GJQsqaUBKTNV-1">
          <mxGeometry x="574" y="523" width="27" height="18" as="geometry" />
        </mxCell>
        <mxCell id="lpwA50W5LmhLsJu2_Kpb-63" value="Yes" style="text;html=1;align=center;verticalAlign=middle;resizable=0;points=[];autosize=1;strokeColor=none;fillColor=none;" vertex="1" parent="WIyWlLk6GJQsqaUBKTNV-1">
          <mxGeometry x="389" y="649" width="36" height="18" as="geometry" />
        </mxCell>
      </root>
    </mxGraphModel>
  </diagram>
</mxfile>
